<?xml version="1.0" encoding="UTF-8"?>
<svg width="478px" height="341px" viewBox="0 0 478 341" version="1.1" xmlns="http://www.w3.org/2000/svg" xmlns:xlink="http://www.w3.org/1999/xlink">
    <!-- Generator: Sketch 60.1 (88133) - https://sketch.com -->
    <title>undraw_to_do_xvvc</title>
    <desc>Created with Sketch.</desc>
    <defs>
        <linearGradient x1="50.0087822%" y1="100.004664%" x2="50.0087822%" y2="-0.00726478901%" id="linearGradient-1">
            <stop stop-color="#808080" stop-opacity="0.25" offset="0%"></stop>
            <stop stop-color="#808080" stop-opacity="0.12" offset="54%"></stop>
            <stop stop-color="#808080" stop-opacity="0.1" offset="100%"></stop>
        </linearGradient>
    </defs>
    <g id="Design" stroke="none" stroke-width="1" fill="none" fill-rule="evenodd">
        <g id="Desktop-HD-Copy" transform="translate(-46.000000, -193.000000)">
            <g id="undraw_to_do_xvvc" transform="translate(46.000000, 193.000000)">
                <path d="M478,189.312818 C477.980375,222.03031 463.613469,253.095931 438.689784,274.313457 C413.7661,295.530983 380.789286,304.769058 348.459807,299.590348 L171.265645,299.590348 C164.421723,300.528783 157.521703,301 150.613645,301 C83.2964687,301 26.2844318,256.866768 7.00088736,195.978997 C2.34663579,181.267787 -0.0145973733,165.92856 0,150.49973 C0,67.378854 67.4340637,0 150.613645,0 C217.605396,0 274.371278,43.6949492 293.934355,104.144979 C314.113508,86.9883373 339.754593,77.5854841 366.249732,77.6261763 C427.959578,77.6261763 478,127.628773 478,189.312818 Z" id="Path" fill="#3E3784" fill-rule="nonzero"></path>
                <path d="M434,277.268981 C409.544531,296.427953 378.246744,304.513823 347.610335,299.587988 L170.856532,299.587988 C164.029617,300.527934 157.146746,301 150.255855,301 C83.1059736,301 26.2356215,256.795623 7,195.809821 C21.3871795,164.955724 58.3601914,143 101.709009,143 C143.9508,143 180.13724,163.853344 195.269374,193.47144 C202.710538,192.113735 210.258712,191.433118 217.821912,191.437884 C261.603552,191.437884 298.880372,213.840406 312.95542,245.183058 C324.614647,241.637264 336.734113,239.848652 348.917126,239.875769 C384.624965,239.875769 416.008743,254.774594 434,277.268981 Z" id="Path" fill="#262456" fill-rule="nonzero" opacity="0.451520647"></path>
                <rect id="Rectangle" fill="#554CB0" fill-rule="nonzero" x="115" y="132" width="243" height="16" rx="1"></rect>
                <rect id="Rectangle" fill="#554CB0" fill-rule="nonzero" x="115" y="166" width="243" height="16" rx="1"></rect>
                <rect id="Rectangle" fill="#554CB0" fill-rule="nonzero" x="115" y="199" width="243" height="16"></rect>
                <path d="M122.95,139.036241 L122.25,139.736226 L124.5,141.986177 L129.5,136.986286 L128.8,136.286301 L124.5,140.561208 L122.95,139.036241 Z M129,139.986221 C128.998745,141.697399 127.904691,143.216574 126.282124,143.760194 C124.659557,144.303814 122.871077,143.750396 121.839136,142.385377 C120.807195,141.020358 120.762404,139.148785 121.727865,137.735966 C122.693327,136.323147 124.453285,135.68481 126.1,136.150193 L126.875,135.37521 C126.282727,135.121674 125.64423,134.993978 125,135.000218 C122.238576,135.000218 120,137.238746 120,140.000109 C120,142.761473 122.238576,145 125,145 C127.761424,145 130,142.761473 130,140.000109 L129,139.986221 Z" id="Shape" fill="#3ACC6C" fill-rule="nonzero"></path>
                <path d="M122.95,173.036241 L122.25,173.736226 L124.5,175.986177 L129.5,170.986286 L128.8,170.286301 L124.5,174.561208 L122.95,173.036241 Z M129,173.986221 C128.998745,175.697399 127.904691,177.216574 126.282124,177.760194 C124.659557,178.303814 122.871077,177.750396 121.839136,176.385377 C120.807195,175.020358 120.762404,173.148785 121.727865,171.735966 C122.693327,170.323147 124.453285,169.68481 126.1,170.150193 L126.875,169.37521 C126.282727,169.121674 125.64423,168.993978 125,169.000218 C122.238576,169.000218 120,171.238746 120,174.000109 C120,176.761473 122.238576,179 125,179 C127.761424,179 130,176.761473 130,174.000109 L129,173.986221 Z" id="Shape" fill="#3ACC6C" fill-rule="nonzero"></path>
                <ellipse id="Oval" fill="#6C63FF" fill-rule="nonzero" opacity="0.1" cx="239.5" cy="330.5" rx="212.5" ry="10.5"></ellipse>
                <path d="M378.779765,103.757692 C378.419664,103.236056 378.22185,102.617217 378.211765,101.980769 C378.211765,98.1265385 385.971647,95 395.544118,95 C405.116588,95 412.876471,98.1265385 412.876471,101.980769 C412.857613,102.70395 412.605282,103.400937 412.158118,103.965 C422.816471,105.166538 430,107.425769 430,110.019231 C430,113.873462 414.104353,117 394.5,117 C374.895647,117 359,113.873462 359,110.019231 C359,107.286154 367.060588,104.9 378.779765,103.757692 Z" id="Path" fill="#FFFFFF" fill-rule="nonzero"></path>
                <path d="M316.159204,31.1669024 C315.866485,30.7387752 315.704988,30.2324221 315.695003,29.7114569 C315.695003,26.5544554 322.034898,24 329.851035,24 C337.667171,24 344.011248,26.5459689 344.011248,29.7114569 C343.997153,30.3016834 343.792987,30.8709952 343.429952,31.3323904 C352.13267,32.321075 358,34.1669024 358,36.2885431 C358,39.4413013 345.035835,42 329.002091,42 C312.968347,42 300,39.4540311 300,36.2885431 C300,34.039604 306.586632,32.1004243 316.159204,31.1669024 Z" id="Path" fill="#4F47B3" fill-rule="nonzero"></path>
                <path d="M127.900768,58.1084408 C127.439139,57.6840043 127.114879,57.1292734 126.970184,56.5164342 C126.139304,52.7877871 133.010675,48.0746096 142.304058,45.988243 C151.597442,43.9018765 159.802373,45.2257557 160.624944,48.9544028 C160.761422,49.6568743 160.6666,50.3850772 160.354908,51.0282009 C170.956926,49.8677118 178.414066,50.483567 178.966601,52.9888827 C179.79748,56.7133403 165.024449,63.202862 145.989007,67.476143 C126.953566,71.7494239 110.855282,72.201889 110.032712,68.4732419 C109.446942,65.821294 116.779451,61.7742456 127.900768,58.1084408 Z" id="Path" fill="#E8E7F9" fill-rule="nonzero"></path>
                <path d="M85,55.4082952 C84.0342879,54.8265553 82.7287114,55.3824401 82.0655614,56.317533 C81.4024115,57.2526259 81.2159005,58.472125 81.050113,59.6054403 C80.6812359,62.1521681 80.4118312,65.078104 82.0655614,67 C79.3632253,58.4807433 71.5919367,51.9523297 63,51" id="Path" stroke="#A09DD1" stroke-width="3" opacity="0.622791109"></path>
                <path d="M170,92.4922497 C169.340176,92.1642229 168.451613,92.4922497 167.998534,93.0050272 C167.596971,93.5640236 167.358563,94.1977656 167.303519,94.8525346 C167.052786,96.2890658 166.863636,97.9329703 167.998534,99 C166.027543,94.1177773 160.98303,90.6250286 155,90" id="Path" stroke="#908EB4" stroke-width="3" opacity="0.83530971"></path>
                <path d="M308,69.4884793 C307.340176,69.1642229 306.451613,69.4884793 305.998534,70.0012568 C305.5963,70.5613663 305.357866,71.1964701 305.303519,71.8525346 C305.052786,73.2852953 304.863636,74.9291998 305.998534,76 C304.025757,71.1188523 298.98218,67.6267509 293,67" id="Path" stroke="#A6A3D4" stroke-width="3" opacity="0.757626488"></path>
                <path d="M85,320.02036 C85.0031114,321.082171 84.8899659,322.141331 84.6623845,323.180183 C84.6201907,323.375636 84.5737775,323.587377 84.5273643,323.754326 C83.3290603,328.392263 79.9493366,331.784187 75.915609,332 C75.7805888,332 75.6455686,332 75.4936709,332 C71.2278774,332 67.6203071,328.44927 66.4304419,323.558873 C66.3966868,323.428571 66.3671512,323.298269 66.3376155,323.15168 C66.1100341,322.112827 65.9968886,321.053667 66,319.991856 C66,313.366814 70.2489811,308 75.4936709,308 C80.7383607,308 85,313.407533 85,320.02036 Z" id="Path" fill="#3F3D56" fill-rule="nonzero"></path>
                <path d="M85,320.644876 C85.0031142,321.763748 84.8898681,322.879827 84.6620843,323.974508 C84.619853,324.180464 84.5733986,324.403584 84.5269441,324.579505 C84.3833576,324.579505 84.2439943,324.579505 84.1046309,324.579505 C83.058824,324.52229 82.0193256,324.378792 80.996406,324.150429 C80.0900853,324.435042 79.1640293,324.650184 78.2260315,324.794043 C77.5068473,324.904042 76.7821367,324.972803 76.0553418,325 L75.3205169,325 C74.4504853,325 73.5814132,324.941318 72.7190677,324.824079 C71.3246016,324.634868 69.955016,324.289507 68.6352993,323.794296 C67.9128212,324.038676 67.1767015,324.239264 66.4308246,324.395002 C66.3970395,324.257698 66.3674776,324.120394 66.3379157,323.965926 C66.1101319,322.871246 65.9968858,321.755167 66,320.636295 C66,313.655225 70.2527588,308 75.5021116,308 C80.7514643,308 85,313.676678 85,320.644876 Z" id="Path" fill="#000000" fill-rule="nonzero" opacity="0.1"></path>
                <path d="M106,296.687722 C106.003701,293.69744 105.30676,290.748352 103.965501,288.079818 L92.9805202,291.517132 L102.624553,285.811942 C99.3476755,281.05162 94.1011143,278.043852 88.3598535,277.634225 C87.9087233,276.945553 87.4136497,276.287057 86.8777529,275.662885 L71.1018917,280.603763 L84.0422494,272.948117 C79.0150956,269.066637 72.3943455,267.964475 66.3923193,270.009917 C60.3902932,272.055358 55.7984471,276.978683 54.151144,283.134763 L67.6644146,298.784358 L53.0053183,288.117407 C45.3304366,293.593718 42.7993402,303.898536 47.055501,312.340816 C51.3116619,320.783096 61.0713931,324.81659 69.9975814,321.822299 C73.9041375,323.266995 78.173324,323.385809 82.1532976,322.160601 C87.7732037,323.404918 93.6508831,322.020701 98.1378569,318.396176 C102.624831,314.77165 105.237894,309.297141 105.244177,303.508055 C105.244177,303.090398 105.244177,302.672742 105.202661,302.255085 C105.74062,300.449176 106.009244,298.572958 106,296.687722 Z" id="Path" fill="#665BD4" fill-rule="nonzero"></path>
                <path d="M106,300.361902 C100.170075,299.262127 94.1917466,299.186242 88.335536,300.137679 C81.7061469,301.229727 74.930736,303.62974 68.4473687,301.877481 C64.6424582,300.847718 61.354882,298.464314 57.6375845,297.139739 C54.0510162,295.89439 50.1874975,295.664397 46.477348,296.475375 C43.5898777,303.350393 45.0066532,311.270627 50.1007565,316.731403 C55.1948598,322.192178 63.0259137,324.185429 70.1287053,321.82915 C74.0545598,323.265442 78.3448361,323.383565 82.3444707,322.165484 C87.9921391,323.402562 93.8988542,322.026398 98.4079937,318.422955 C102.917133,314.819512 105.543105,309.376848 105.549418,303.621436 C105.549418,303.206209 105.549418,302.790981 105.507698,302.375754 C105.708952,301.71401 105.873303,301.0417 106,300.361902 Z" id="Path" fill="#3E3784" fill-rule="nonzero" opacity="0.699148996"></path>
                <path d="M422.324471,299.11585 L439.385484,289.145037 C437.079015,285.225812 434.130989,281.715651 430.662529,278.758772 L398.477542,288.729586 L423.696715,274.006017 C410.990899,267.094825 395.5554,267.355201 383.093296,274.690943 C370.631192,282.026685 362.992674,295.348688 363,309.734767 C363,332.218953 381.357957,333 403.999989,333 C426.64202,333 445,332.218953 445,309.734767 C445.006697,304.044562 443.807917,298.416594 441.481504,293.216452 L422.324471,299.11585 Z" id="Path" fill="#665BD4" fill-rule="nonzero"></path>
                <path d="M426.366244,320.955331 C424.634062,319.076346 422.481326,317.62232 420.34941,316.226621 C417.263961,314.180986 414.074414,312.089521 410.443494,311.393755 C407.249783,310.781314 403.956139,311.297931 400.712461,311.110449 C395.065275,310.766516 389.748947,308.328914 385.801538,304.27361 C383.482246,301.873842 381.658459,298.928293 378.868646,297.095137 C375.862311,295.120328 372.048179,294.695369 368.483881,295.186988 C367.448445,295.338081 366.42246,295.548124 365.410924,295.816094 C363.810466,300.258868 362.994671,304.946361 363,309.668922 C363,332.216742 381.271216,333 403.806238,333 C414.740638,333 424.671537,332.816684 432,330.050285 L430.775814,327.75884 C429.50166,325.367404 428.202524,322.950971 426.366244,320.955331 Z" id="Path" fill="#3E3784" fill-rule="nonzero" opacity="0.703636533"></path>
                <g id="Group-3" transform="translate(239.000000, 248.500000) scale(-1, 1) translate(-239.000000, -248.500000) translate(209.000000, 162.000000)">
                    <path d="M59.9098638,169.396839 C59.7225546,168.73254 59.316064,168.150902 58.756299,167.74623 C58.6891825,167.700147 58.6178713,167.658254 58.54656,167.61636 C57.963395,167.344751 57.3346027,167.184204 56.6924667,167.142962 C54.2846624,166.83295 51.7552094,166.36793 49.9304796,164.79273 C49.4019372,164.33609 48.9530956,163.804041 48.466501,163.313886 C47.4332889,162.329174 46.3207165,161.431019 45.1400395,160.628505 C44.9063883,160.410965 44.5950487,160.29625 44.2759146,160.310113 C43.8207829,159.951126 43.4451324,159.501784 43.1726872,158.990465 C42.911703,158.339911 42.7888582,157.642313 42.811936,156.941867 C42.5686387,149.819952 41.0543227,142.496948 42.73643,135.576122 C42.9162619,134.795321 42.8667413,133.979286 42.5938074,133.22589 C42.9335847,133.070884 43.2733619,132.911688 43.6089444,132.739924 C46.4549544,131.247259 48.9859076,129.220276 51.0630705,126.770084 C52.0325145,125.727944 52.8017698,124.516619 53.3324471,123.196558 C53.965859,121.420269 53.8735738,119.476405 53.6470556,117.60795 C53.1793357,114.314425 52.5196345,111.050955 51.6713137,107.834169 L49.7459092,99.8743821 C49.3264311,98.1232289 48.8608104,96.3259927 47.929569,94.7968757 L48.0176594,94.7968757 C47.9547377,93.9129204 47.8876212,93.0289651 47.757583,92.1533885 C47.4828035,90.5595081 47.104474,88.985172 46.6249921,87.4403566 C46.4572008,86.853846 46.3271626,86.0369205 46.1342027,85.2493205 C46.4823695,81.675795 47.8750368,78.2070035 48.1099446,74.6460461 C48.1854506,74.7465908 48.2567619,74.8471355 48.3364627,74.9476802 C48.9153425,75.6682504 49.712351,76.2044887 50.2996203,76.9041121 C51.398653,78.2363291 51.646145,80.0377546 51.876858,81.7344461 C51.9475682,82.6195295 52.1673875,83.4863396 52.5270491,84.2983354 C52.7286272,84.6332979 52.9066358,84.9818558 53.0597863,85.3414865 C53.3030836,86.066246 53.122708,86.853846 52.9758907,87.6079311 C52.7703464,88.6804077 52.6906455,89.9288375 53.46668,90.7122481 C53.8832959,91.1138469 54.4284895,91.3556773 55.0061647,91.3951141 C56.1390222,91.4748332 57.2381288,90.990283 57.9425115,90.1006013 C58.7353251,89.0742077 58.8485842,87.6959077 58.815026,86.4097737 C58.8218119,85.4404087 58.6629266,84.4769944 58.3452105,83.5610077 C57.9079346,82.5989546 57.3693672,81.6861176 56.7386093,80.8379227 C55.614408,79.1035269 54.7880361,77.2057461 53.8609895,75.362427 C53.1266464,73.8566793 52.2723575,72.4122885 51.3063678,71.0431951 C50.7820201,70.3142462 50.2115299,69.6146228 49.7417144,68.8563483 C49.5865075,68.6049866 48.8188626,66.7323419 48.101555,64.8596973 C48.4706957,64.7842888 48.8524208,64.6334717 48.9405112,64.2899441 C48.9758875,64.0882984 48.9540928,63.8807906 48.8775895,63.6908654 C47.3015205,58.2812433 47.0142162,52.5784479 48.0386333,47.0381528 C48.3154888,45.5383613 48.6888244,44.0427592 48.6846296,42.5220209 C48.6804348,41.0012826 48.2651515,39.4009464 47.1451449,38.3326592 C46.4572008,37.6749294 45.5595177,37.2601826 44.8464049,36.6317784 C43.4747114,35.4168635 42.9251951,33.5525976 42.5728335,31.7679295 C42.4649244,30.9305261 42.204774,30.1198487 41.8051886,29.375804 C41.6952203,29.2095655 41.5717578,29.0526344 41.4360478,28.9065955 C42.4248604,26.2368706 42.9277573,23.4120849 42.9210003,20.5655764 C42.9203789,18.4293085 42.6383059,16.3024086 42.0820441,14.2396403 C42.3085623,14.8010148 42.5015222,15.3749573 42.7070665,15.9614679 C40.953648,6.82028079 34.0867913,0 25.8859942,0 L25.6594761,0 C16.3596463,0 8.77548209,8.76833396 8.41473091,19.7486509 C4.65420299,22.144896 2.65227161,26.522461 3.30129273,30.9300572 C1.18789213,33.041387 0,35.9044395 0,38.8898443 C0.0461703451,45.2324895 5.23092629,50.3374053 11.5817906,50.2932868 C13.5329722,50.2931499 15.4528404,49.8033589 17.1650443,48.8689038 C17.2647732,49.8129776 17.4344274,50.7483709 17.6726128,51.6673974 C18.0585327,53.1252953 18.6541916,54.5329208 18.9310472,56.0117654 C19.2079027,57.4906101 19.1911236,59.1160824 18.3857256,60.3980271 C17.7348033,61.3896892 17.2462774,62.4786137 16.9385261,63.6238356 C16.6634459,65.002245 16.5773631,66.4116157 16.6826445,67.8131973 C16.7203975,69.0951419 16.7539558,70.3728972 16.7917088,71.6548419 C16.9343313,76.6820759 17.0727591,81.7093099 16.0534273,86.6443779 C15.5920014,88.8814971 14.4258522,91.0055034 14.6901235,93.2761374 C14.8216882,94.0999623 15.0614594,94.9028626 15.4032362,95.6640736 C15.8227144,96.7616863 16.3680359,97.9430863 17.4335103,98.4751353 C17.9538446,98.7066878 18.5166118,98.8279401 19.0862541,98.831231 C19.7867356,98.8644519 20.4887916,98.8336014 21.1836446,98.7390651 C21.6031227,98.680414 22.1694182,98.3997268 22.0226008,97.997548 C21.9561099,97.8603674 21.8511941,97.7454001 21.7205766,97.6665885 C20.6148473,96.7942007 19.9665184,95.4668436 19.9587685,94.0595481 C19.9587685,92.0737906 21.2801246,90.1592524 20.8732308,88.1944417 C20.6173492,86.9879056 19.7112764,85.8190737 20.0930015,84.6460524 C20.9319577,81.9941865 21.0578012,79.1496099 21.770914,76.4600397 C22.0100165,75.5844631 22.249119,74.7046972 22.4924163,73.8291206 C22.9118944,72.2622993 23.3313725,70.6912887 23.6963185,69.10771 C24.5607188,65.3273124 24.98858,61.4604525 24.971532,57.5827761 C25.6513057,58.8311258 26.1150603,60.1851828 26.3432254,61.5878058 C26.4690688,62.6058207 26.4019523,63.6824867 26.8801574,64.5915781 C27.3583624,65.5006696 28.3063829,66.1667781 28.8726784,67.0423547 C28.6404923,67.5734398 28.3757181,68.089712 28.0798648,68.5882292 C27.4853932,69.3496307 26.9430349,70.1502202 26.4564845,70.984544 C26.0370064,71.8224164 25.7433717,72.6854249 25.3868153,73.5358653 C24.1913027,76.3930099 22.1400547,78.9820354 21.8422252,82.0612163 C21.5989279,84.537129 22.5385589,86.9585801 23.4907742,89.2585396 C24.0500784,90.6326502 24.6303564,92.001175 25.2316084,93.364114 C25.2693614,93.4520906 25.3113092,93.548446 25.3574518,93.6364225 C25.4287631,94.3360459 25.5210483,95.03148 25.6133335,95.7311034 L27.1528181,95.7311034 C27.7820353,96.5689757 28.4825637,97.406848 28.860094,98.3829693 C29.108666,99.1402109 29.2498624,99.9284791 29.2795722,100.724822 C29.5857912,104.495248 29.5270642,108.362029 30.9574846,111.868525 C31.3769627,112.911676 31.7964408,113.963205 31.8383886,115.023114 C31.8835662,115.907043 32.0242079,116.783513 32.2578667,117.637276 C32.4704066,118.560973 32.5829137,119.504812 32.5934492,120.452527 C32.6417186,122.080468 32.5997065,123.70983 32.4676058,125.333133 C29.1117809,127.427814 26.3180567,130.452533 23.2978143,133.070884 C19.1357731,136.672397 14.4115152,139.569236 9.31241407,141.646507 C9.31241407,141.566909 9.31241407,141.483122 9.31241407,141.403524 C7.87779893,141.336494 6.51030029,141.82246 5.20991814,142.488569 C4.752687,142.714794 4.3080402,142.957777 3.86758818,143.196571 C3.62496296,143.310036 3.40473178,143.466127 3.21739711,143.657401 C2.63012776,144.340267 3.05799543,145.375039 3.50683701,146.171018 C5.00017909,148.782387 6.49352116,151.390962 7.98686324,153.996745 C8.33083529,154.600013 8.67900212,155.207471 8.96424724,155.840065 C9.45084184,156.91673 9.76125565,158.060426 10.3065772,159.107767 C10.9524315,160.225449 11.7297894,161.261994 12.6220964,162.195326 C13.5952856,163.312489 14.5740678,164.417084 15.5584431,165.509111 C15.8656316,165.908179 16.2474174,166.243944 16.6826445,166.497801 C17.1332105,166.747738 17.6862137,166.723444 18.1130648,166.43496 C18.2734823,166.295612 18.4009844,166.122491 18.4864004,165.928047 C18.7133685,165.457498 18.8172755,164.937193 18.7884246,164.415688 C18.7482032,163.557108 18.3661148,162.750179 17.727145,162.174379 C17.3076669,161.826662 16.8042931,161.541786 16.6323071,161.043252 C16.5574393,160.770484 16.540296,160.48513 16.5819697,160.205379 C16.7917088,157.737845 17.0014478,155.245175 17.7397293,152.882375 C18.2934404,151.114465 19.1533706,149.296282 18.742282,147.490667 C18.4682281,147.407056 18.1875716,147.346793 17.9033258,147.310524 C18.1907815,146.975991 18.4960431,146.65714 18.8177881,146.35535 C20.3027406,144.964482 22.1106912,143.954845 23.897668,142.961967 L31.7838565,138.571516 C32.1474042,140.587995 32.5151467,142.600285 32.8870839,144.608386 C33.0171221,145.30382 33.1429656,145.999254 33.268809,146.703067 L35.0390066,156.33022 C35.1959138,157.106715 35.3093489,157.891343 35.3787839,158.680452 C35.4291213,159.459673 35.3787839,160.238894 35.3787839,161.013926 C35.3924057,161.883783 35.3405239,162.753432 35.223577,163.61552 C35.131291,164.09952 35.0065652,164.576784 34.8502415,165.044092 L34.7915145,165.044092 C34.6288044,165.166251 34.5108761,165.338498 34.4559321,165.534247 C33.9551243,166.687004 33.6244853,167.906247 33.4743533,169.153856 C33.3561304,170.14324 33.5621826,171.144242 34.0616226,172.006811 C34.1556179,172.197632 34.300843,172.358623 34.4811007,172.47183 C34.6935029,172.558514 34.9240156,172.591607 35.1522657,172.568186 L45.5175698,172.350339 C46.7930132,172.289345 48.0713337,172.335591 49.3390154,172.488588 C50.3457629,172.639405 51.3357312,172.907524 52.3508683,172.987122 C54.71253,173.12956 56.9651275,172.065462 59.0625181,171.03069 C59.4045638,170.911706 59.6988757,170.685378 59.9014743,170.385528 C60.0298794,170.068986 60.0328789,169.715509 59.9098638,169.396839 Z" id="Path" fill="url(#linearGradient-1)" fill-rule="nonzero"></path>
                    <path d="M5.21290342,31.7642095 C5.13531343,31.2221118 5.09605407,30.6752154 5.09541762,30.1275921 C5.09476465,26.3034389 7.02293537,22.7369743 10.2228335,20.6436045 C10.5752909,9.73282225 17.9978756,1 27.1030249,1 C36.4347539,1 44,10.1608606 44,21.4577167 C44,32.7545728 36.4473416,41.911237 27.1030249,41.911237 C26.2232539,41.910865 25.34539,41.8293889 24.4805741,41.6678426 C23.62298,46.4536158 19.8080585,50.1586879 14.9997948,50.8756263 C10.191531,51.5925647 5.46191506,49.1615297 3.24583189,44.8340587 C1.02974871,40.5065876 1.82126839,35.247479 5.21290342,31.7642095 L5.21290342,31.7642095 Z" id="Path" fill="#3F3D56" fill-rule="nonzero"></path>
                    <path d="M27.4230909,3.62139352 C18.4475485,3.62139352 11.1306201,12.186261 10.7831798,22.910893 C7.62760216,24.9677659 5.72670975,28.4725481 5.72874991,32.2300294 C5.72971764,32.7678835 5.76841645,33.3050122 5.84456336,33.8374877 C3.80044855,35.9151733 2.65675714,38.7096099 2.65969347,41.6192345 C2.6613226,42.080793 2.69032653,42.5418521 2.74655356,43 C1.17525931,38.9346429 2.12895205,34.3294826 5.18690841,31.2160942 C5.11042287,30.6836549 5.07172235,30.1465024 5.07109496,29.6086359 C5.07045128,25.8526163 6.97117555,22.3496941 10.1255248,20.2936212 C10.4729652,9.57723258 17.7898935,1 26.765436,1 C34.6821125,1 41.3082964,7.66476938 43,16.5964671 C40.6216881,9.01256133 34.5456181,3.62139352 27.4230909,3.62139352 Z" id="Path" fill="#000000" fill-rule="nonzero" opacity="0.1"></path>
                    <path d="M36.6803196,26.0549724 C36.5987438,26.6753128 36.672608,27.304973 36.8960237,27.8937574 C37.2818021,28.7313395 38.2275814,29.4793198 37.949655,30.3519635 C37.7712843,30.9168445 37.1200241,31.228503 36.5475787,31.415498 C33.7434261,32.3076204 30.6820879,31.777801 27.7244536,31.8985687 C26.7382988,31.9796446 25.748299,32.0121535 24.7585229,31.9959619 C23.7605882,31.9751571 22.7951519,31.658839 22,31.0921524 C23.5410275,30.3864447 24.9958818,29.5256348 26.3389699,28.5248657 C26.6622931,28.2997149 26.9548654,28.0380304 27.2100824,27.7457196 C27.8406019,26.9665734 27.9360094,25.9264133 27.9733428,24.9485848 C28.0106762,23.9707564 28.0023799,23.0007194 27.9733428,22.0423696 C30.0944326,22.0189952 32.2113743,22.0099052 34.3241678,22.0150995 C35.0044651,22.0150995 37.0785425,21.8592703 37.3149873,22.5488146 C37.4352838,22.8916389 36.9789868,23.8967375 36.9001718,24.2824149 C36.7923198,24.8706702 36.7218012,25.4628213 36.6803196,26.0549724 Z" id="Path" fill="#A0616A" fill-rule="nonzero"></path>
                    <path d="M36.6803196,26.0549724 C36.5987438,26.6753128 36.672608,27.304973 36.8960237,27.8937574 C37.2818021,28.7313395 38.2275814,29.4793198 37.949655,30.3519635 C37.7712843,30.9168445 37.1200241,31.228503 36.5475787,31.415498 C33.7434261,32.3076204 30.6820879,31.777801 27.7244536,31.8985687 C26.7382988,31.9796446 25.748299,32.0121535 24.7585229,31.9959619 C23.7605882,31.9751571 22.7951519,31.658839 22,31.0921524 C23.5410275,30.3864447 24.9958818,29.5256348 26.3389699,28.5248657 C26.6622931,28.2997149 26.9548654,28.0380304 27.2100824,27.7457196 C27.8406019,26.9665734 27.9360094,25.9264133 27.9733428,24.9485848 C28.0106762,23.9707564 28.0023799,23.0007194 27.9733428,22.0423696 C30.0944326,22.0189952 32.2113743,22.0099052 34.3241678,22.0150995 C35.0044651,22.0150995 37.0785425,21.8592703 37.3149873,22.5488146 C37.4352838,22.8916389 36.9789868,23.8967375 36.9001718,24.2824149 C36.7923198,24.8706702 36.7218012,25.4628213 36.6803196,26.0549724 Z" id="Path" fill="#000000" fill-rule="nonzero" opacity="0.1"></path>
                    <path d="M47.8764751,64.0820424 C48.1921619,66.4205884 47.9004529,68.7985764 47.0278456,71 C42.3677538,70.5268933 37.6855504,70.2878819 33,70.2839235 C33.8079092,69.2334188 34.3237044,67.9990561 34.4978311,66.6994255 C34.61454,65.4811525 34.61454,64.2550083 34.4978311,63.0367353 L43.5951393,63.0079276 C44.2620236,62.9794403 44.9300376,63.027791 45.5851755,63.151966 C46.5016953,63.3536197 46.9854141,63.9215425 47.8764751,64.0820424 Z" id="Path" fill="#A0616A" fill-rule="nonzero"></path>
                    <path d="M50.083639,68.8579856 C50.5457939,69.6073509 51.1045812,70.290474 51.617153,71.0067182 C52.571144,72.3511758 53.4141303,73.7688921 54.1379978,75.2462215 C55.045502,77.0513225 55.8563738,78.9143854 56.9571427,80.6284034 C57.5779182,81.4625484 58.107439,82.3590433 58.5368722,83.3029337 C58.8449157,84.2031941 58.9996571,85.147481 58.9948256,86.0975282 C59.0284369,87.3602709 58.9149989,88.7140966 58.154544,89.7201506 C57.4647378,90.59491 56.3767948,91.0719069 55.2555724,90.9911736 C54.6906818,90.960225 54.1556698,90.7311309 53.7472669,90.3453117 C52.986812,89.5793859 53.0624373,88.3497643 53.2641049,87.2981688 C53.4069528,86.5612239 53.5876134,85.7870177 53.3481331,85.0749136 C53.1998974,84.7220314 53.0257787,84.3802559 52.8271585,84.0522991 C52.4753828,83.2535057 52.2596197,82.4030391 52.1885445,81.535094 C51.9616684,79.879038 51.7221882,78.102918 50.6424263,76.7987739 C50.0668333,76.0949501 49.2853714,75.5815728 48.7181813,74.8736089 C48.4198814,74.5009963 48.1846025,74.0828421 47.8778997,73.7309303 C47.428349,73.2258332 46.8023392,72.8408002 46.5418519,72.2197792 C46.4196097,71.8150013 46.3407527,71.3987137 46.3065731,70.9777372 C46.1347231,70.3078844 45.8866693,69.6592943 45.5671252,69.0442919 C44.5377802,66.7216734 44.2604873,64.1506465 44,61.6293013 C45.1049515,61.5861036 46.19636,61.3737985 47.2350843,61 C46.8863674,61.0621021 49.7685334,68.3280477 50.083639,68.8579856 Z" id="Path" fill="#A0616A" fill-rule="nonzero"></path>
                    <path d="M50.083639,68.8579856 C50.5457939,69.6073509 51.1045812,70.290474 51.617153,71.0067182 C52.571144,72.3511758 53.4141303,73.7688921 54.1379978,75.2462215 C55.045502,77.0513225 55.8563738,78.9143854 56.9571427,80.6284034 C57.5779182,81.4625484 58.107439,82.3590433 58.5368722,83.3029337 C58.8449157,84.2031941 58.9996571,85.147481 58.9948256,86.0975282 C59.0284369,87.3602709 58.9149989,88.7140966 58.154544,89.7201506 C57.4647378,90.59491 56.3767948,91.0719069 55.2555724,90.9911736 C54.6906818,90.960225 54.1556698,90.7311309 53.7472669,90.3453117 C52.986812,89.5793859 53.0624373,88.3497643 53.2641049,87.2981688 C53.4069528,86.5612239 53.5876134,85.7870177 53.3481331,85.0749136 C53.1998974,84.7220314 53.0257787,84.3802559 52.8271585,84.0522991 C52.4753828,83.2535057 52.2596197,82.4030391 52.1885445,81.535094 C51.9616684,79.879038 51.7221882,78.102918 50.6424263,76.7987739 C50.0668333,76.0949501 49.2853714,75.5815728 48.7181813,74.8736089 C48.4198814,74.5009963 48.1846025,74.0828421 47.8778997,73.7309303 C47.428349,73.2258332 46.8023392,72.8408002 46.5418519,72.2197792 C46.4196097,71.8150013 46.3407527,71.3987137 46.3065731,70.9777372 C46.1347231,70.3078844 45.8866693,69.6592943 45.5671252,69.0442919 C44.5377802,66.7216734 44.2604873,64.1506465 44,61.6293013 C45.1049515,61.5861036 46.19636,61.3737985 47.2350843,61 C46.8863674,61.0621021 49.7685334,68.3280477 50.083639,68.8579856 Z" id="Path" fill="#000000" fill-rule="nonzero" opacity="0.1"></path>
                    <circle id="Oval" fill="#A0616A" fill-rule="nonzero" cx="32.5" cy="17.5" r="7.5"></circle>
                    <path d="M48.4048771,94.0947196 C49.8518441,95.7629476 50.4195333,97.9983731 50.9402707,100.133705 L52.8610234,107.982717 C53.7080787,111.163795 54.3650892,114.390312 54.8287278,117.645928 C55.0549498,119.49349 55.1488532,121.399441 54.517139,123.171933 C53.9904972,124.474689 53.2237338,125.671996 52.2549192,126.704406 C50.1923513,129.121505 47.6702965,131.125507 44.8280088,132.605762 C43.321285,133.368976 41.7291944,133.952856 40.1840556,134.632659 C37.874884,135.646107 35.6681526,136.863914 33.4614212,138.08172 L25.1723062,142.669347 C23.3924087,143.653602 21.5954379,144.650368 20.1143241,146.026656 C18.7376442,147.305604 17.6778038,148.87464 17.0155098,150.614283 C16.9021293,151.071647 16.6472719,151.483767 16.2856238,151.794554 C15.8161064,152.111517 15.1758555,152.007253 14.6295081,151.844601 C10.4921511,150.501996 7.78368436,146.622846 8.01358217,142.369066 C14.1072152,140.28579 19.7319379,137.072659 24.5790071,132.906043 C28.2796572,129.723898 31.6174986,125.92868 36.1334016,123.993535 C38.1053744,123.159421 40.478571,122.504642 41.4005323,120.598691 C41.7540845,119.71336 41.9182342,118.766635 41.8828546,117.816921 C41.9639531,115.201974 42.0450515,112.557833 41.5328508,109.988761 C41.1060169,107.820065 40.252349,105.747292 39.6249031,103.624472 C38.3444014,99.3746611 37.9175674,94.9330042 37.4907335,90.5205412 C40.4414649,90.1786853 43.4102831,90.0073938 46.3816843,90.0075611 C46.6426199,89.97585 46.905939,90.0446595 47.1158386,90.1994074 C47.2478724,90.3635594 47.3266542,90.5625383 47.3420606,90.7707754 C47.5810876,91.9176822 47.636576,93.2230705 48.4048771,94.0947196 Z" id="Path" fill="#A0616A" fill-rule="nonzero"></path>
                    <path d="M48.4048771,94.0947196 C49.8518441,95.7629476 50.4195333,97.9983731 50.9402707,100.133705 L52.8610234,107.982717 C53.7080787,111.163795 54.3650892,114.390312 54.8287278,117.645928 C55.0549498,119.49349 55.1488532,121.399441 54.517139,123.171933 C53.9904972,124.474689 53.2237338,125.671996 52.2549192,126.704406 C50.1923513,129.121505 47.6702965,131.125507 44.8280088,132.605762 C43.321285,133.368976 41.7291944,133.952856 40.1840556,134.632659 C37.874884,135.646107 35.6681526,136.863914 33.4614212,138.08172 L25.1723062,142.669347 C23.3924087,143.653602 21.5954379,144.650368 20.1143241,146.026656 C18.7376442,147.305604 17.6778038,148.87464 17.0155098,150.614283 C16.9021293,151.071647 16.6472719,151.483767 16.2856238,151.794554 C15.8161064,152.111517 15.1758555,152.007253 14.6295081,151.844601 C10.4921511,150.501996 7.78368436,146.622846 8.01358217,142.369066 C14.1072152,140.28579 19.7319379,137.072659 24.5790071,132.906043 C28.2796572,129.723898 31.6174986,125.92868 36.1334016,123.993535 C38.1053744,123.159421 40.478571,122.504642 41.4005323,120.598691 C41.7540845,119.71336 41.9182342,118.766635 41.8828546,117.816921 C41.9639531,115.201974 42.0450515,112.557833 41.5328508,109.988761 C41.1060169,107.820065 40.252349,105.747292 39.6249031,103.624472 C38.3444014,99.3746611 37.9175674,94.9330042 37.4907335,90.5205412 C40.4414649,90.1786853 43.4102831,90.0073938 46.3816843,90.0075611 C46.6426199,89.97585 46.905939,90.0446595 47.1158386,90.1994074 C47.2478724,90.3635594 47.3266542,90.5625383 47.3420606,90.7707754 C47.5810876,91.9176822 47.636576,93.2230705 48.4048771,94.0947196 Z" id="Path" fill="#000000" fill-rule="nonzero" opacity="0.1"></path>
                    <path d="M4.58061928,146.708278 C6.08065341,149.289132 7.58212436,151.871379 9.08503212,154.455017 C9.43417799,155.052205 9.78332387,155.653569 10.0721235,156.27999 C10.5592036,157.344906 10.8695555,158.47664 11.4212922,159.512323 C12.0698986,160.616749 12.851219,161.642872 13.7489313,162.569257 L16.6886534,165.851703 C16.9979287,166.245246 17.3828876,166.577085 17.8222999,166.82892 C18.2747308,167.07788 18.8344126,167.053528 19.2619878,166.766278 C19.4216238,166.624701 19.5493023,166.452658 19.6369964,166.260965 C19.8661814,165.795266 19.9699814,165.280943 19.9387274,164.765907 C19.8984868,163.919001 19.514219,163.121869 18.8697375,162.548377 C18.4645559,162.205933 17.9429923,161.921956 17.7705746,161.429171 C17.6953437,161.156995 17.6777488,160.872882 17.7188493,160.593943 C17.930061,158.150901 18.1498936,155.686979 18.8869793,153.34834 C19.4430264,151.598538 20.305115,149.798621 19.8913125,148.011233 C19.1068119,147.781546 18.0852369,147.622852 17.6153986,148.27433 C16.7015847,149.527172 16.645549,149.067797 15.2360341,148.875694 C13.8265193,148.683592 12.5032133,148.600069 11.4730175,147.530977 C10.1022966,146.119442 10.2186786,143.931144 10.4212694,142.005944 C8.97727105,141.939126 7.60223976,142.444439 6.29617556,143.079212 C5.83495817,143.304723 5.3866721,143.542763 4.94269649,143.780803 C4.69750233,143.8926 4.47545936,144.046867 4.28750916,144.236003 C3.69697849,144.912537 4.12802278,145.935692 4.58061928,146.708278 Z" id="Path" fill="#3F3D56" fill-rule="nonzero"></path>
                    <path d="M47.6500135,87.7262622 C48.1167043,89.2699345 48.481926,90.8435428 48.7432541,92.436642 C48.871627,93.3137763 48.933743,94.1993445 49,95.0806958 C46.0557043,95.7933674 42.9995998,95.8271033 39.9724828,95.8608393 L27.354664,96 C27.0771066,94.2692323 26.9620178,92.5154829 27.0109558,90.7624963 C27.1890215,87.8822909 28.2532747,85.0695574 28.075209,82.189352 C31.5377803,81.5615573 35.0380473,81.1727086 38.5520982,81.0254623 C39.1914978,80.9593109 39.8374316,81.0223658 40.4528461,81.21101 C41.0243128,81.4218595 41.500535,81.8393417 42.0512964,82.1050122 C43.2936153,82.703825 45.1405293,82.4086356 46.1923593,83.3701097 C47.1489449,84.268329 47.3104463,86.4949006 47.6500135,87.7262622 Z" id="Path" fill="#3F3D56" fill-rule="nonzero"></path>
                    <path d="M47.6500135,87.7262622 C48.1167043,89.2699345 48.481926,90.8435428 48.7432541,92.436642 C48.871627,93.3137763 48.933743,94.1993445 49,95.0806958 C46.0557043,95.7933674 42.9995998,95.8271033 39.9724828,95.8608393 L27.354664,96 C27.0771066,94.2692323 26.9620178,92.5154829 27.0109558,90.7624963 C27.1890215,87.8822909 28.2532747,85.0695574 28.075209,82.189352 C31.5377803,81.5615573 35.0380473,81.1727086 38.5520982,81.0254623 C39.1914978,80.9593109 39.8374316,81.0223658 40.4528461,81.21101 C41.0243128,81.4218595 41.500535,81.8393417 42.0512964,82.1050122 C43.2936153,82.703825 45.1405293,82.4086356 46.1923593,83.3701097 C47.1489449,84.268329 47.3104463,86.4949006 47.6500135,87.7262622 Z" id="Path" fill="#000000" fill-rule="nonzero" opacity="0.1"></path>
                    <path d="M47.3279072,92.6544161 C48.2815475,97.1885613 47.2740058,101.87747 47.0376689,106.507819 C46.8718184,109.820589 47.1040091,113.141725 47.1993731,116.458678 C47.2542577,117.411493 47.2111832,118.36748 47.070839,119.311342 C46.8932422,120.147859 46.6420908,120.966743 46.3203656,121.758274 L45.1842898,124.811712 C44.1187005,127.681106 43.0323799,130.755457 44.1187005,133.746153 C44.4084324,134.5166 44.4661297,135.356215 44.284551,136.159623 C42.6592163,143.015217 44.1228468,150.293273 44.3550375,157.337093 C44.3349673,158.030421 44.4548745,158.720625 44.7074697,159.365746 C45.2879464,160.620584 46.7184067,161.206174 47.4688801,162.348076 C48.3810577,163.73258 48.053503,165.694309 46.9796212,166.949146 C45.9057394,168.203983 44.2347959,168.827219 42.5928762,168.965251 C40.5404765,169.136746 38.4839306,168.634811 36.4688474,168.30437 L36.2449492,168.086865 C35.9920272,166.677265 36.7590857,165.372234 36.9995689,163.929171 C37.1129807,163.073831 37.1642546,162.211272 37.1529806,161.348389 C37.1529806,160.578756 37.1944432,159.804939 37.1529806,159.035306 C37.0850945,158.25336 36.9757531,157.475642 36.8254259,156.705491 L35.1088735,147.118535 L34.7398562,145.052236 L33.201593,136.444053 C32.9113547,134.816947 33.6162192,132.997433 33.8069472,131.357779 C34.1925496,127.95717 34.5781519,124.53983 34.4662029,121.12249 C34.4533021,120.183568 34.3435253,119.248553 34.1386482,118.332569 C33.9194437,117.48434 33.7901842,116.615018 33.7530458,115.739238 C33.7281683,114.685175 33.3093958,113.647843 32.8989159,112.610511 C31.5347957,109.134612 31.5886971,105.290627 31.2943125,101.56376 C31.263038,100.774341 31.1235029,99.993098 30.8796863,99.2423116 C30.4650602,98.1045925 29.6026377,97.1927441 28.9309433,96.1846915 C28.2592488,95.1766389 27.7492586,93.9176189 28.1307147,92.7631687 C28.736069,90.9185579 31.2196798,90.3287844 32.7247729,89.7892044 C35.3051656,88.8396409 38.1183928,88.7444056 40.7560821,89.517323 C43.0738848,90.2669879 45.2835485,91.3217818 47.3279072,92.6544161 Z" id="Path" fill="#A0616A" fill-rule="nonzero"></path>
                    <path d="M34.628185,172.062837 C34.7222541,172.243302 34.8675292,172.395182 35.0476108,172.501331 C35.2575918,172.581903 35.4848678,172.613347 35.7103036,172.593015 L45.8520197,172.385728 C47.1007752,172.327698 48.3524676,172.371709 49.5932979,172.517276 C50.5789486,172.656796 51.543628,172.915906 52.5292786,172.987659 C54.8361206,173.123194 57.0297176,172.118646 59.1016811,171.138015 C59.4307444,171.019968 59.7124496,170.806615 59.9069786,170.528111 C60.0310071,170.2256 60.0310071,169.889855 59.9069786,169.587344 C59.7241371,168.961775 59.3252807,168.41281 58.7745289,168.0287 C58.7085955,167.983764 58.6399739,167.942503 58.5690103,167.905125 C58.0002402,167.648578 57.3853648,167.49707 56.7570908,167.458659 C54.3999177,167.163672 51.9211112,166.725179 50.1343572,165.234302 C49.6184635,164.807768 49.1822606,164.305494 48.7041152,163.839097 C47.6965334,162.908102 46.6077198,162.059969 45.4493709,161.303809 C45.2247711,161.098554 44.9218606,160.989155 44.6105193,161.00085 C44.4350149,161.046846 44.2747689,161.134659 44.1449567,161.255973 C43.6581266,161.582408 43.2762416,162.030921 43.0418668,162.551521 C42.8302432,163.095711 43.0601177,163.705766 43.5871203,163.998549 C44.0065461,164.154015 44.425972,164.074289 44.7699011,164.289549 C44.0401002,164.791823 42.9118448,165.04296 42.0897702,165.565165 C41.2773064,166.157747 40.3655674,166.615946 39.3928622,166.920508 C38.4030173,167.163672 37.2244308,166.996248 36.578515,166.242837 C36.2303916,165.844207 35.7899945,165.218357 35.3202376,165.485439 C35.159007,165.598777 35.0423556,165.760166 34.9888912,165.943864 C34.4979577,167.035707 34.1744964,168.188881 34.0284061,169.368097 C33.9186061,170.304255 34.1289115,171.249134 34.628185,172.062837 Z" id="Path" fill="#3F3D56" fill-rule="nonzero"></path>
                    <path d="M38.2545026,66.0013897 C38.8235193,65.9895238 39.3916088,66.0536879 39.9442628,66.1922435 C40.4714229,66.3674465 40.9769524,66.6041255 41.450796,66.8975729 L46.8458136,69.9429359 C47.2419167,70.1444543 47.6101922,70.3983515 47.9411039,70.6980532 C48.7188008,71.4573195 48.9427449,72.6314853 48.9875337,73.7309693 C49.1707607,78.0044352 47.277415,82.1036433 47.037184,86.3771092 C46.9323466,88.283368 47.1583985,90.1935251 47.7049446,92.0197437 C47.8393111,92.4719843 47.9736776,93.0238008 47.6479407,93.3640185 C47.529504,93.473339 47.391167,93.5579166 47.2407696,93.6129582 C45.5347225,94.2892446 43.6739504,94.4427574 41.8498237,94.5796743 C37.3709412,94.92819 32.8676285,95.2767056 28.4131763,94.6668032 C28.1910053,94.6533373 27.9743217,94.5910614 27.7779893,94.4842474 C27.5237214,94.2795232 27.335169,94.0021608 27.2364517,93.6876401 C26.6745555,92.3461314 26.1316607,91.0018567 25.6077672,89.654816 C24.6997755,87.3894642 23.8080708,85.0079405 24.0360866,82.5724798 C24.3211064,79.5520107 26.2673844,77.0003782 27.4033919,74.1915079 C27.7454156,73.3617086 28.0141486,72.4821215 28.4253914,71.6813653 C28.8851694,70.8610289 29.399402,70.073653 29.9644983,69.3247355 C30.4001714,68.6899391 30.8195577,67.2502375 31.3529519,66.8353379 C32.0044257,66.2918194 33.8448392,66.3042664 34.6713966,66.2046905 C35.8602931,66.0591849 37.0571026,65.9912795 38.2545026,66.0013897 Z" id="Path" fill="#3F3D56" fill-rule="nonzero"></path>
                    <path d="M4.58265248,146.658839 C6.08793941,149.245982 7.59466818,151.834519 9.10283879,154.424453 C9.4532073,155.023096 9.80357581,155.625925 10.0933868,156.253872 C10.5821725,157.321383 10.8936112,158.455874 11.4472799,159.49408 C12.0981576,160.601197 12.882214,161.62982 13.78307,162.558462 L16.7330863,165.848906 C17.0434446,166.243407 17.4297515,166.576055 17.8707026,166.828503 C18.3247178,167.07807 18.8863595,167.053658 19.315432,166.765708 C19.475627,166.623786 19.6037525,166.451324 19.6917537,166.259164 C19.9217413,165.79233 20.0259048,165.276755 19.9945413,164.760464 C18.9201283,164.252868 17.9498865,163.560665 17.1310357,162.717542 C16.4881857,161.968493 15.9285526,161.156062 15.4613784,160.293666 C15.0576616,159.604319 14.6525029,158.9066 14.2459025,158.200509 C12.1581099,154.644932 10.0674336,151.089355 7.9738736,147.533779 C7.10940622,146.145899 6.54163557,144.604177 6.30421626,143 C5.84138379,143.226061 5.39152793,143.464681 4.9459976,143.703301 C4.69994483,143.81537 4.47712431,143.970013 4.28851596,144.159609 C3.69591737,144.858724 4.12847108,145.884371 4.58265248,146.658839 Z" id="Path" fill="#000000" fill-rule="nonzero" opacity="0.1"></path>
                    <path d="M34.6301257,172.057427 C34.7241876,172.238934 34.8694516,172.39169 35.0495195,172.498452 C35.2594843,172.57949 35.4867429,172.611115 35.7121615,172.590666 L45.8531019,172.382182 C47.1017619,172.323816 48.3533585,172.368082 49.5940939,172.514489 C50.5796692,172.654815 51.5442748,172.91542 52.52985,172.987588 C54.8365156,173.123905 57.0299447,172.113557 59.1017498,171.127266 C59.4307879,171.008537 59.7124716,170.793952 59.9069857,170.513841 C60.0310048,170.209583 60.0310048,169.8719 59.9069857,169.567642 C59.7241582,168.938462 59.3253323,168.386327 58.7746227,168 C58.6278349,168.088205 58.4894349,168.184428 58.3552289,168.276643 C56.9847387,169.251966 55.4117127,169.935502 53.7418979,170.2813 C52.1011388,170.562728 50.4339534,170.678298 48.7678883,170.626101 C44.9388236,170.626101 41.0804013,170.650157 37.2974698,169.99263 C36.5341733,169.860322 34.9866104,169.190767 34.0261988,169.363167 C33.921338,170.299866 34.1329802,171.244051 34.6301257,172.057427 Z" id="Path" fill="#000000" fill-rule="nonzero" opacity="0.1"></path>
                    <path d="M25.0771947,29.4147863 C28.6130524,30.0341746 32.1886818,30.3827456 35.7746488,30.4576299 C36.6587025,30.4576299 37.7284479,30.3662253 38.1200151,29.5518933 C38.30167,29.1696558 38.2895597,28.6960136 38.5479133,28.3594785 C39.0282895,27.7321104 39.9971156,28.043717 40.6874041,28.4051808 C41.6562301,28.9120609 42.6694607,29.4604886 43.2467195,30.4077729 C43.6277693,31.1399631 43.8728186,31.9388668 43.9693023,32.7635192 C44.3083914,34.5209808 44.8210618,36.3573827 46.1168666,37.5539522 C46.7869713,38.1730108 47.6306573,38.5760221 48.2765413,39.2158544 C49.3220661,40.2628528 49.7297804,41.8333503 49.7297804,43.333217 C49.7297804,44.8330837 49.3826177,46.3080219 49.1202273,47.7871148 C48.1626871,53.2433132 48.4389452,58.8531876 49.9275823,64.1817798 C49.9980169,64.3709821 50.0175415,64.5762403 49.9840972,64.7759098 C49.8831778,65.1581473 49.431059,65.2952542 49.0475654,65.3575755 C43.1256163,66.3630264 36.7676955,65.4115874 31.3180491,68 C30.8618935,66.844978 29.73967,66.1926814 29.182595,65.0916712 C28.734513,64.1983988 28.7789175,63.1347814 28.6779981,62.1334853 C28.3510194,59.4287396 26.6596106,57.1228503 25.7230788,54.5759852 C24.8874663,52.3448815 24.5968185,49.8894211 23.4301905,47.8203529 C23.026513,47.0891159 22.4976954,46.4202003 22.0899812,45.6806538 C21.7160962,44.9503296 21.3962832,44.1920117 21.1332654,43.4121574 C20.5826737,42.0782467 20.2105836,40.6735762 20.0271891,39.2366282 C19.7930561,36.3282994 21.105008,33.548768 22.6551297,31.1223908 C23.2566092,30.1917256 24.0034126,29.2278223 25.0771947,29.4147863 Z" id="Path" fill="#FF6F61" fill-rule="nonzero"></path>
                    <path d="M41,40 C41.629729,40.1433315 41.9970709,40.7980077 42.2894451,41.3907028 C42.486457,41.7626332 42.6520018,42.1514619 42.7842322,42.55285 C42.9577315,43.2308675 43.0272966,43.9328053 42.9903935,44.6330935 C43.0040571,45.077723 42.9586534,45.5221886 42.8554515,45.9540675 C42.7448923,46.3893153 42.4764319,46.7638651 42.1057741,47" id="Path" stroke="#000000" opacity="0.1"></path>
                    <ellipse id="Oval" fill="#3F3D56" fill-rule="nonzero" transform="translate(30.854245, 11.911975) rotate(-14.340000) translate(-30.854245, -11.911975) " cx="30.8542448" cy="11.9119751" rx="8.39599556" ry="4.14383389"></ellipse>
                    <path d="M31.1018018,15.0540823 C35.243967,14.0866994 38.3095151,11.9387144 38.5257033,10 C38.7144042,10.2214677 38.8526019,10.4752173 38.932137,10.7462668 C39.5201688,12.8468698 36.2211375,15.42919 31.5817395,16.5189765 C26.9423415,17.608763 22.6704634,16.7835261 22.0694603,14.6829232 C22.003146,14.449822 21.984096,14.2076074 22.0132514,13.9682443 C23.2974091,15.500263 27.0461118,16.0017228 31.1018018,15.0540823 Z" id="Path" fill="#000000" fill-rule="nonzero" opacity="0.1"></path>
                    <path d="M24.425,91.0543619 L23.375,92.1043389 L26.75,95.4792653 L34.25,87.9794289 L33.2,86.9294519 L26.75,93.3418119 L24.425,91.0543619 Z M33.5,92.4793308 C33.4981168,95.0460978 31.8570363,97.3248604 29.4231859,98.1402911 C26.9893355,98.9557217 24.3066152,98.1255936 22.7587036,96.0780656 C21.2107921,94.0305376 21.1436058,91.2231772 22.5917978,89.103949 C24.0399898,86.9847208 26.6799281,86.0272154 29.15,86.7252896 L30.3125,85.562815 C29.4240903,85.1825113 28.4663443,84.9909663 27.5,85.0003273 C23.3578644,85.0003273 20,88.3581184 20,92.5001636 C20,96.6422089 23.3578644,100 27.5,100 C31.6421356,100 35,96.6422089 35,92.5001636 L33.5,92.4793308 Z" id="Shape" fill="#3ACC6C" fill-rule="nonzero" transform="translate(27.500000, 92.500000) scale(-1, 1) translate(-27.500000, -92.500000) "></path>
                    <path d="M27.9294609,41.9855065 C27.7440767,39.8851787 27.0932341,37.8667575 26.0338586,36.1067822 C25.6166705,35.3401232 25.0229999,34.7078261 24.3126517,34.2735868 C23.5842157,33.8475006 22.6971076,33.923867 22.037929,34.4694054 C21.6332621,34.9342679 21.349201,35.5096957 21.2152376,36.1359466 C20.2625571,38.8264948 19.8512671,41.7118273 20.0096345,44.5936436 C20.0096345,47.2184461 20.0437553,49.8765794 20.6465569,52.4180548 C20.9915565,53.859613 21.5185339,55.2470087 21.7839183,56.7093986 C22.0493026,58.1717886 22.0151817,59.7758346 21.3024353,61.0424059 C20.7245995,62.0231423 20.2932695,63.0991616 20.0247993,64.2296661 C19.7808331,65.5870988 19.7030567,66.9742767 19.7935358,68.3543557 L19.8921071,72.1499035 C20.0172169,77.099531 20.1423267,82.0991549 19.24002,86.9487899 C18.8305699,89.1652898 17.7993622,91.2567991 18.0344169,93.5024635 C18.1498772,94.3139323 18.3614529,95.1053119 18.6637568,95.856453 C19.0428773,96.9397049 19.5167779,98.1104501 20.4607878,98.6354106 C20.9193245,98.8642095 21.4168155,98.9834936 21.9204016,98.9853843 C22.5458016,99.020918 23.1728571,98.9916241 23.7932567,98.8978909 C24.1723772,98.8395619 24.6652338,98.5604162 24.5514976,98.1604463 C24.4918413,98.0274161 24.4000293,97.914988 24.2861133,97.8354708 C23.3045821,96.9687677 22.7319214,95.6611153 22.7279282,94.2774052 C22.7279282,92.3108865 23.8956192,90.4235285 23.5354548,88.4986733 C23.3117737,87.3070963 22.5118295,86.1530165 22.8454555,84.9947703 C23.6036965,82.3783005 23.7022678,79.5785112 24.3619374,76.9120452 L24.9988598,74.3122408 C25.3779802,72.7623574 25.7571007,71.2166404 26.0641883,69.6500916 C26.9253252,65.3179093 27.269427,60.8809318 27.0878135,56.4510847 C27.0612751,55.7594701 27.4100659,54.9720293 27.466934,54.2845811 C27.5275933,53.4513104 27.466934,52.6513706 27.466934,51.8389318 C27.4593516,48.4808511 28.2327573,45.3269217 27.9294609,41.9855065 Z" id="Path" fill="#A0616A" fill-rule="nonzero"></path>
                </g>
            </g>
        </g>
    </g>
</svg>